<svg id="SVGRoot" width="1200" height="770" version="1.1" viewBox="0 0 1200 770" xmlns="http://www.w3.org/2000/svg"><g transform="translate(-356 -72)" fill="#198754" style="shape-inside:url(#rect2529);white-space:pre" aria-label="Naberi"><path d="m423 348c14-9.7 17-27 20-43 2.2-24 8.6-47 6.3-72 6.2-25 2.6-50 6.4-76 0.17-23-21-39-41-42-20-5.7-47-27-6.3-27 25 11 53-3.9 74 9.8 12 24 35 38 50 58 15 17 28 37 43 53 21 18 36 43 54 64 26 31 23-10 25-28-3.5-20-3.1-37 2.8-56-2.8-16-0.15-34-1.4-51 12-32-40-26-50-48 2-17 49 3.4 68-2.7 24-11 63 13 18 21-24 8.3-18 29-19 50-0.27 24-5.2 47-4.3 71-6.2 37-14 76-2.7 113 12 58-48-4.4-56-26-29-31-56-64-88-93-14-25-33-45-51-66-23 6.1-2.6 48-6.3 67-4.5 26-2.4 52-4.4 78-13 50 85 34 50 72-23-2.8-48-8.8-72-4.2-24 7.4-59-12-16-22z"/><path d="m811 345c-12 10-28 15-41 22-21 4.7-41-9.7-41-31-2.6-17 9.5-31 22-40 21-12 44-19 65-28 13-18 2.7-43-11-57-29-13-44 2.6-42 29-12 22-47 3.6-26-17 23-26 64-50 98-31 32 29 15 74 16 111-12 28 16 41 36 33-0.23 40-60 44-73 10-0.8-1.3-2.6 0.097-3.7-0.49zm-44-29c-2.8 29 41 29 49 7.6 6.4-16 10-60-18-37-14 5.7-31 12-31 30z"/><path d="m924 367c-15-16-7-45-4.6-65-8.4-28 0.43-60-4.1-89 4.6-22-1.1-44 1.5-67 5-31-54-42-2.5-61 18-19 59-5.2 42 26-3.6 31-4.5 63-3.9 94 24-0.87 59-25 89-8.3 47 23 59 83 36 127-15 23-42 44-70 44-28 6-55-3.3-83-0.43zm27-82c0.22 28 18 68 50 67 34 5.9 47-35 47-62 4.7-26-5.8-58-32-67-17-17-45-9.9-63-0.2-4.2 21 0.18 41-2.3 63z"/><path d="m1115 282c-0.83-45 27-85 68-102 21-3.3 43 1 62 13 18 9.3 47 50 16 57-26-0.31-53 4.9-79-2e-4 -35-7.1-41 30-20 54 21 35 72 33 101 12 16 25-23 42-44 52-41 9.7-85-16-98-57-5-9.1-4-20-7.5-29zm38-53c0.51 24 28 4.6 42 8.5 47 16 51-45 2.9-42-23 1.8-34 17-45 33z"/><path d="m1298 356c18-9.3 31-19 28-41-1.9-31 9.9-68-18-90-22-14 13-24 25-27 24-28 25 7.7 37 14 14-9.2 28-21 45-19 32 22-5.6 71-30 36-23-8.1-35 20-30 39 1.5 21-1.4 41 1.2 61 0.44 21 59 27 23 38-22-0.15-44 1.7-65 0.75-6.8-1.7-19-1.6-17-12z"/><path d="m1454 368c-33-3.5 12-19 13-27 5.9-31 7.3-64 3.4-95 2.9-22-42-37-2.3-46 11-9.4 41-16 38 6.8-2.7 31-5.1 63-2.9 95-5.2 27 2.6 50 24 57-6 21-35 5.8-52 8.4-7.3-0.15-15 0.64-22 0.97zm5.7-259c11-14 25-21 42-13 18 14-0.53 42-21 41-15 3.2-24-15-22-28z"/></g><g transform="translate(-358 -790)" style="shape-inside:url(#rect2547);white-space:pre" aria-label="Äaj"><path d="m820 1441c-29 0.98-53-28-57-55-7-19-5.7-41-3.3-61 8.9-21 18-40 38-54 29-27 106-28 103 21-32 34-54-68-90-8.4-13 16-18 39-14 60 2.5 27 9.2 59 38 71 24 15 88-50 56 5.9-16 18-48 30-70 21zm-12-244c-26-16-9.3-45 11-18 22 38 40 7.3 64-9.4 22 13-34 48-37 68-21-0.054-21-32-38-41z"/><path d="m1e3 1419c-12 10-28 15-41 22-21 4.7-41-9.7-41-31-2.6-17 9.5-31 22-40 21-12 44-19 65-28 13-18 2.7-43-11-57-29-13-44 2.6-42 29-12 22-47 3.6-26-17 23-26 64-50 98-31 32 29 15 74 16 111-12 28 16 41 36 33-0.23 40-60 44-73 10-0.8-1.3-2.6 0.097-3.7-0.49zm-44-29c-2.8 29 41 29 49 7.6 6.4-16 10-60-18-37-14 5.7-31 12-31 30z"/><path d="m1058 1552c-13-23 28-23 39-35 21-11 19-35 19-55 9.9-28 8-58 5.9-88-0.054-26 2.3-54-7-80-23-15-24-36 8-37 25-11 43-12 37 24-4.6 20-7.1 41-4 61-4.7 23-2.8 47-0.88 70-11 18-5.6 38-2.9 58-1.3 22-12 44-31 56-12 18-38 32-60 24l-2.7-0.52zm40-363c-2.6-17 22-22 32-27 16 2 31 20 18 33-8.5 20-36 15-48 0.39l-2.1-6.8z"/></g><g transform="translate(-342 -162)" fill="#ffc107" style="shape-inside:url(#rect2555);white-space:pre" aria-label=".si"><path d="m876 600c14-45 49 32 5.1 11l-3.8-4.3-1.3-7z"/><path d="m924 596c3.5-36 11 15 31 8 14 1.7 30-16 15-27-23-5.3-56-23-43-52 8.6-10 19-18 33-15 10 4.9 30-3.4 21 15-2 39-15-19-37-0.33-18 11 0.56 30 16 28 15 0.03 26 15 26 29 4.6 27-26 43-48 32-7.3-2.1-18-6.5-14-16z"/><path d="m1e3 615c-21-4.8 21-13 10-31-0.59-17 3-35-4.2-50-21-8.1 5.9-18 15-19 18 3.6 2.6 33 6.2 47 2.3 14-3.8 32 4.9 43 23 5.7-7.1 15-18 10-4.7-0.89-9.5 0.17-14 0.21zm3.2-147c5.3-11 25-14 28-0.66 3.2 18-32 25-28 0.66z"/></g></svg>
